<svg version="1.1" xmlns="http://www.w3.org/2000/svg" xmlns:xlink="http://www.w3.org/1999/xlink" width="1500" height="500" viewBox="-6,104,1500,500"><g id="document" fill="#ffffff" fill-rule="nonzero" stroke="#000000" stroke-width="0" stroke-linecap="butt" stroke-linejoin="miter" stroke-miterlimit="10" stroke-dasharray="" stroke-dashoffset="0" font-family="none" font-weight="none" font-size="none" text-anchor="none" style="mix-blend-mode: normal"><rect x="-2.8" y="104" transform="scale(2.14286,1)" width="700" height="500" id="Shape 1 1" vector-effect="non-scaling-stroke"/></g><g fill="#000000" fill-rule="none" stroke="none" stroke-width="1" stroke-linecap="none" stroke-linejoin="none" stroke-miterlimit="10" stroke-dasharray="" stroke-dashoffset="0" font-family="none" font-weight="none" font-size="none" text-anchor="none" style="mix-blend-mode: normal"><g id="stage"><g id="layer1 1" fill-rule="evenodd" stroke="none" stroke-linecap="butt" stroke-linejoin="miter"><path d="M383.61027,296.81874v-12.89258l31.70808,0.04737c40.68262,0.05961 51.51838,1.44558 65.65178,8.39692c11.25751,5.53479 18.50682,12.61294 24.22192,23.64583c4.00515,7.73218 4.89603,30.86762 1.56783,40.71776c-3.46267,10.2505 -11.80152,21.09084 -20.40778,26.53088c-12.72295,8.04239 -24.52295,10.80214 -50.40438,11.78624l-23.30354,0.88629v51.49545h-29.03391v-77.69473l37.05644,-0.52108c35.28538,-0.49663 37.40484,-0.69376 44.33937,-4.11976c12.34093,-6.09711 17.76569,-18.12632 14.67434,-32.54242c-1.91776,-8.94245 -5.8297,-14.07992 -14.07991,-18.49154c-5.98709,-3.20136 -8.50694,-3.42294 -44.16974,-3.87373l-37.82048,-0.47982v-12.89106zM559.52214,284.25469l15.45979,0.43551l31.14727,48.59512l31.14574,48.59665v65.55092h-30.562v-64.35747l-31.32606,-48.72195c-17.22934,-26.79676 -31.32606,-49.12995 -31.32606,-49.62811zM672.63213,283.92616h28.82914l-24.83469,37.3972c-13.65968,20.56823 -25.19685,37.41554 -25.63847,37.43846c-0.44162,0.02292 -4.31076,-4.64543 -8.59862,-10.37428l-7.79484,-10.41706l19.01874,-27.0214zM732.01716,283.92616h131.41664v27.5058h-131.41664zM906.2206,283.92616h27.5058v163.50673h-27.5058zM1013.18763,283.92616h27.5058v163.50673h-27.5058v-68.76452h-50.42732v-25.97769h50.42732zM1135.43566,283.92616h27.5058v163.50673h-27.5058zM1312.69526,285.28923c0,-0.7503 6.80922,-1.36307 15.13126,-1.36307c15.12209,0 15.13278,0.00306 16.64407,4.20228c3.90429,10.85563 55.28361,151.40418 56.69863,155.10218l1.60756,4.20228l-31.24964,-0.05807l-12.08116,-31.67905c-13.1493,-34.47699 -46.75069,-128.20609 -46.75069,-130.40655zM1271.81554,383.77836c13.65816,-33.74962 24.9768,-61.2264 25.15253,-61.06136c0.17421,0.16504 3.45199,8.52528 7.28293,18.57559l6.96508,18.27455l-12.20961,29.98432h29.71618l11.22749,27.02508h-51.94828l-12.56471,30.85636h-14.22508c-7.82388,0 -14.22661,-0.5165 -14.22814,-1.14608c-0.00306,-0.62958 11.17194,-28.75885 24.83164,-62.50847zM783.97258,337.40967h27.5058v110.02321h-27.5058z" id="CompoundPath 1"/></g><g id="Layer3 1" fill-rule="nonzero" stroke="#000000" stroke-linecap="round" stroke-linejoin="round"><path d="M265.16935,449.26934v-170.35483h57.45161v170.35483zM109.92741,449.26934v-109.87389h57.45161v109.87389zM186.54032,452.44454v-170.35483h57.45161v170.35483zM190.57257,452.44454l50.40323,-60.48387l-54.43548,2.01613z" id="CompoundPath 1"/></g></g></g></svg>